<?xml version="1.0" encoding="UTF-8"?>
<!DOCTYPE svg PUBLIC "-//W3C//DTD SVG 1.1//EN" "http://www.w3.org/Graphics/SVG/1.1/DTD/svg11.dtd">
<svg xmlns="http://www.w3.org/2000/svg" version="1.1" width="379px" height="101px" style="shape-rendering:geometricPrecision; text-rendering:geometricPrecision; image-rendering:optimizeQuality; fill-rule:evenodd; clip-rule:evenodd" xmlns:xlink="http://www.w3.org/1999/xlink">
<g><path style="opacity:0.977" fill="#2e4131" d="M 36.5,-0.5 C 39.1667,-0.5 41.8333,-0.5 44.5,-0.5C 44.9867,0.473444 45.4867,1.47344 46,2.5C 46.6667,33.5 46.6667,64.5 46,95.5C 44.975,97.687 43.475,99.3536 41.5,100.5C 28.8333,100.5 16.1667,100.5 3.5,100.5C 2.5,98.8333 1.16667,97.5 -0.5,96.5C -0.5,77.1667 -0.5,57.8333 -0.5,38.5C 3.30022,17.3673 15.6336,4.36727 36.5,-0.5 Z"/></g>
<g><path style="opacity:0.994" fill="#2e4131" d="M 90.5,-0.5 C 93.1667,-0.5 95.8333,-0.5 98.5,-0.5C 98.7828,0.28913 99.2828,0.955796 100,1.5C 100.667,32.8333 100.667,64.1667 100,95.5C 99.0027,97.3231 97.8361,98.9897 96.5,100.5C 83.8333,100.5 71.1667,100.5 58.5,100.5C 56.525,99.3536 55.025,97.687 54,95.5C 53.0855,74.8 53.4188,54.1333 55,33.5C 60.414,15.2513 72.2473,3.91794 90.5,-0.5 Z"/></g>
<g><path style="opacity:0.957" fill="#2e4131" d="M 132.5,18.5 C 137.762,18.1953 142.928,18.5286 148,19.5C 156.288,35.7415 164.288,52.0749 172,68.5C 179.393,52.046 187.06,35.7127 195,19.5C 200.072,18.5286 205.238,18.1953 210.5,18.5C 210.5,40.1667 210.5,61.8333 210.5,83.5C 206.833,83.5 203.167,83.5 199.5,83.5C 199.667,67.8298 199.5,52.1631 199,36.5C 192.439,50.6226 185.605,64.6226 178.5,78.5C 173.833,79.8333 169.167,79.8333 164.5,78.5C 157.395,64.6226 150.561,50.6226 144,36.5C 143.5,52.1631 143.333,67.8298 143.5,83.5C 139.833,83.5 136.167,83.5 132.5,83.5C 132.5,61.8333 132.5,40.1667 132.5,18.5 Z"/></g>
<g><path style="opacity:0.933" fill="#2e4131" d="M 300.5,33.5 C 309.06,33.021 314.893,36.6877 318,44.5C 318.499,48.8206 318.666,53.1539 318.5,57.5C 314.833,57.5 311.167,57.5 307.5,57.5C 309.362,46.8637 305.029,42.3637 294.5,44C 292.152,44.3459 290.319,45.5125 289,47.5C 287.541,59.3991 287.041,71.3991 287.5,83.5C 283.5,83.5 279.5,83.5 275.5,83.5C 275.5,67.1667 275.5,50.8333 275.5,34.5C 279.167,34.5 282.833,34.5 286.5,34.5C 286.335,37.8499 286.502,41.1832 287,44.5C 289.651,38.3296 294.151,34.663 300.5,33.5 Z"/></g>
<g><path style="opacity:0.933" fill="#2e4031" d="M 240.5,33.5 C 248.586,33.2328 255.919,35.3994 262.5,40C 267.9,46.1346 269.9,53.3013 268.5,61.5C 255.167,61.5 241.833,61.5 228.5,61.5C 228.912,70.9089 233.912,75.5756 243.5,75.5C 251.15,76.0321 255.817,72.6988 257.5,65.5C 261.167,65.5 264.833,65.5 268.5,65.5C 268.134,74.7062 263.467,80.5395 254.5,83C 226.971,88.1335 215.138,76.9669 219,49.5C 223.287,40.1238 230.454,34.7905 240.5,33.5 Z M 241.5,42.5 C 246.095,42.7187 250.429,43.8853 254.5,46C 256.902,48.7034 258.235,51.8701 258.5,55.5C 248.5,55.5 238.5,55.5 228.5,55.5C 229.2,47.4665 233.533,43.1332 241.5,42.5 Z"/></g>
<g><path style="opacity:0.917" fill="#2e4131" d="M 320.5,34.5 C 324.846,34.3343 329.179,34.501 333.5,35C 338.667,40.8333 343.833,46.6667 349,52.5C 354.167,46.6667 359.333,40.8333 364.5,35C 368.871,34.1725 373.205,34.3391 377.5,35.5C 370.952,43.4263 364.285,51.2596 357.5,59C 363.979,66.9803 370.646,74.8136 377.5,82.5C 373.205,83.6609 368.871,83.8275 364.5,83C 359.333,77.1667 354.167,71.3333 349,65.5C 343.833,71.3333 338.667,77.1667 333.5,83C 329.129,83.8275 324.795,83.6609 320.5,82.5C 327.048,74.5737 333.715,66.7404 340.5,59C 332.979,51.4146 326.313,43.2479 320.5,34.5 Z"/></g>
</svg>
